<svg xmlns="http://www.w3.org/2000/svg" width="511" height="337" fill="none"><path fill="#EFF1F7" d="M406.192 64.473c-14.661-15.65-26.011-34.334-43.535-47.106-27.526-20.104-67.141-22.065-99.327-9.435-32.186 12.63-57.258 38.087-73.784 66.912-8.693 15.167-15.521 31.711-28.259 44.104-10.769 10.471-24.921 17.152-38.34 24.428-21.636 11.699-42.472 25.836-56.472 45.233s-20.26 44.873-11.31 66.733c6.035 14.751 18.191 26.487 30.645 37.113 14.655 12.493 30.407 24.192 48.586 31.635 22.759 9.261 48.024 11.253 72.799 12.196a996.438 996.438 0 0 0 131.651-3.722c35.815-3.387 72.714-9.168 102.679-27.883 41.975-26.208 63.617-74.226 68.489-121.314 1.983-18.832 1.481-38.403-6.267-55.877-18.528-41.796-68.522-32.02-97.555-63.017Z"/><path fill="#3F3D56" d="M120.666 152.226s-11.153-1.993-14.277 5.862c-3.125 7.854 0 34.981 0 34.981L148 223l-27.334-70.774Z"/><path fill="#2BD0D0" d="m173.717 272.909-16.801 4.905c-2.441.707-5.001-.666-5.728-3.07-.716-2.407.676-4.932 3.114-5.648l16.777-4.91c2.44-.707 5 .663 5.728 3.065.725 2.403-.657 4.932-3.09 5.658Z"/><circle cx="172.5" cy="282.5" r="7.5" fill="#25233A"/><circle cx="171.5" cy="284.5" r="3.5" fill="#3F3D56"/><circle cx="142.5" cy="275.5" r="7.5" fill="#25233A"/><path fill="url(#a)" d="M145 275.5a3.5 3.5 0 1 1-7 0 3.5 3.5 0 0 1 7 0Z"/><circle cx="140.5" cy="285.5" r="7.5" fill="#25233A"/><path fill="#3F3D56" d="M146 285.5a3.5 3.5 0 1 1-7 0 3.5 3.5 0 0 1 7 0Z"/><path fill="#2BD0D0" d="m174.682 279.913-34.122-6.989c-2.402-.499-3.954-2.874-3.473-5.312.492-2.435 2.829-4.01 5.231-3.524l34.122 6.975c2.402.499 3.954 2.874 3.473 5.312-.486 2.441-2.825 4.022-5.231 3.538Z"/><path fill="#2BD0D0" d="M154 225h9v40.227c0 2.636-2.014 4.773-4.498 4.773-2.484 0-4.498-2.137-4.498-4.773V225H154Z"/><path fill="#2BD0D0" d="m156.707 276.896-16.789 4.917c-2.441.71-5.004-.664-5.73-3.072-.716-2.408.675-4.934 3.112-5.651l16.789-4.904c2.438-.707 4.997.664 5.725 3.067.711 2.404-.677 4.924-3.107 5.643Z"/><path fill="url(#b)" d="m160 277.26-2.083.551a5.805 5.805 0 0 1-1.917.172l.87-.228a5.336 5.336 0 0 0 1.672-.755l1.458.26Z"/><path fill="url(#c)" d="M177 267.288a4.217 4.217 0 0 1-.995 2.712L162 267.232a4.39 4.39 0 0 0 .749-1.567l8.627-2.496a4.492 4.492 0 0 1 3.35.368 4.32 4.32 0 0 1 2.102 2.576c.112.382.17.778.172 1.175Z"/><path fill="url(#d)" d="M153.147 266.382a3.921 3.921 0 0 1-.147-1.062V226h3.962v42.376c-.039.208-.026.42.038.624a6.125 6.125 0 0 0-1.896-.343 11.851 11.851 0 0 0-1.385 0l.284-.067c.174-.027-.627-1.405-.856-2.208Z" opacity=".31"/><path fill="url(#e)" d="M177.522 279.035a4.301 4.301 0 0 1-2.13.562 4.555 4.555 0 0 1-.893-.091l-15.055-3.111-1.254-.256c-.429.337-.915.59-1.433.745l-.746.224-15.47 4.705c-2.361.711-4.839-.666-5.541-3.079a3.747 3.747 0 0 0 4.853.283c1.889-1.338 9.407-3.348 13.667-4.417 2.013-.492 3.553-2.152 3.929-4.235.01-.122.028-.244.053-.365.71.786 2.014 1.667 4.371 2.416 5.804 1.828 15.229 3.038 15.229 3.038s1.701 1.709.42 3.581Z" opacity=".31"/><path fill="url(#f)" d="M179 278a3.804 3.804 0 0 1-1 1c.269-.26.614-.608 1-1Z"/><path fill="url(#g)" d="M153.866 266.464c.185.81.576 1.557 1.134 2.166a5.64 5.64 0 0 0-.427.105L140.392 273c-2.181-.563-3.617-2.676-3.363-4.947s2.121-4.002 4.371-4.053c.302.001.603.031.9.091l11.566 2.373Z"/><path fill="#503164" d="M175 75.825s-.186-14.066-11.469-12.853c-11.282 1.213-10.417-3.444-15.237-2.933-4.819.512-10.417 5.264-8.809 11.133 1.608 5.87-4.254 7.183-8.104 11.636-3.85 4.453.906 8.096 7.392 12.45 6.487 4.353-.403 3.226 3.443 10.11 3.845 6.883 16.863-1.91 16.863-1.91L175 75.825Z"/><path fill="#2BD0D0" d="m82.84 309.73 7.95.27v-63.612s.401-16.45 15.898-18.1c15.497-1.65 156.044-22.031 156.044-22.031s5.571-.59 8.779 10.112 6.331 52.784 6.331 52.784l43.139 5.82s1.139-74.337-14.439-78.44c-15.579-4.102-219.306 16.802-219.306 16.802s-15.11 78.953-4.397 96.395Z"/><path fill="url(#h)" d="m82.84 309.73 7.95.27v-63.612s.401-16.45 15.898-18.1c15.497-1.65 156.044-22.031 156.044-22.031s5.571-.59 8.779 10.112 6.331 52.784 6.331 52.784l43.139 5.82s1.139-74.337-14.439-78.44c-15.579-4.102-219.306 16.802-219.306 16.802s-15.11 78.953-4.397 96.395Z" opacity=".197"/><path fill="#2BD0D0" d="M42 220.479s3.898-21.588 31.312-27.246l193.517-22.191s18.998-.789 27.689 4.478c8.691 5.266 21.095 9.631 26.181 33.462 5.086 23.831 6.301 64.542 6.301 64.542l-4.811.748s-7.022-73.719-14.461-78.386c-7.44-4.667-208.595 23.966-208.595 23.966s-13.952 2.78-15.167 23.476c-1.216 20.695 0 65.672 0 65.672L42 292.044v-71.565Z"/><path fill="url(#i)" d="M241.579 179.918c-10.029-1.281-20.14-2.209-30.246-1.834-7.595.292-15.141 1.326-22.673 2.355l-66.427 9.107c-1.127.155-2.412.406-2.975 1.379-1.082 1.855 1.46 3.685 3.52 4.392 22.087 7.591 45.684 15.279 68.42 9.866 10.395-2.474 20.05-7.613 30.593-9.398 10.543-1.785 21.365-.141 31.886-1.825 9.89-1.582 19.306-6.075 29.331-6.12 3.074 0 6.238.389 9.154-.565 2.917-.955 5.495-3.871 4.688-6.778-9.412-.323-19.977-2.028-29.209-.177-9.136 1.829-16.912-.402-26.062-.402Z" opacity=".19"/><path fill="#2BD0D0" d="m181 190.587.384 1.409s11.381 6.782 11.309 7.001c-.071.218 47.207-10.827 47.207-10.827L241 185l-60 5.587Z"/><path fill="url(#j)" d="m181 190.587.384 1.409s11.381 6.782 11.309 7.001c-.071.218 47.207-10.827 47.207-10.827L241 185l-60 5.587Z"/><path fill="#2BD0D0" d="M182 191.112 224.345 182 242 185.446 193.893 197 182 191.112Z"/><path fill="url(#k)" d="M182 191.112 224.345 182 242 185.446 193.893 197 182 191.112Z"/><path fill="#2BD0D0" d="m168.221 198.656 9.638.341s2.448.152 3.081-1.811c.633-1.963-3.927-6.106-4.416-6.185-.488-.078-13.172 3.48-11.344 7.038l3.041.617Z"/><path fill="url(#l)" d="m168.221 198.656 9.638.341s2.448.152 3.081-1.811c.633-1.963-3.927-6.106-4.416-6.185-.488-.078-13.172 3.48-11.344 7.038l3.041.617Z"/><path fill="#2BD0D0" d="m54 296.731-4.8 15.007c-13.921 5.09-25.758 0-25.758 0L20 296s17.364 5.926 34 .731Z"/><path fill="url(#m)" d="m54 296.731-4.8 15.007c-13.921 5.09-25.758 0-25.758 0L20 296s17.364 5.926 34 .731Z"/><path fill="#2BD0D0" d="m59 283-1.546 11.787-3.917 2.092c-16.685 5.162-34.127-.722-34.127-.722l-3.007-2.284L15 283h44Z"/><path fill="url(#n)" d="m59 283-1.546 11.787-3.917 2.092c-16.685 5.162-34.127-.722-34.127-.722l-3.007-2.284L15 283h44Z"/><ellipse cx="37" cy="283" fill="#2BD0D0" rx="22" ry="4"/><ellipse cx="37" cy="283" fill="url(#o)" rx="22" ry="4"/><path fill="#2BD0D0" d="M27.162 194.91c-2.181-1.03-4.525-1.808-6.411-3.313-3.8-3.06-4.764-8.331-5.954-13.059-1.19-4.728-3.493-9.927-8.185-11.283-1.755-.501-3.814-.303-5.148.945-1.407 1.315-1.692 3.476-1.308 5.384.385 1.907 1.321 3.616 2.045 5.424a24.917 24.917 0 0 1 1.489 13.249c-.593 3.666-2.01 7.381-1.1 10.975 1.543 6.098 9.23 9.673 9.443 15.956.144 4.24-3.348 8.164-2.557 12.336.584 3.087 3.43 5.497 3.583 8.634.172 3.557-3.194 6.568-3.03 10.125.162 3.557 3.718 5.935 6.04 8.733a14.536 14.536 0 0 1 3.306 8.295c.122 1.898-.122 3.865.498 5.664.453 1.315 1.357 2.431 2.059 3.616.773 1.279 1.357 2.662 2.289 3.847a9.426 9.426 0 0 0 10.089 3.164c.72-4.728.09-9.552.29-14.329.393-9.258 3.9-18.588 1.655-27.574-.823-3.295-2.407-6.423-2.687-9.804-.249-3.02.556-6.012 1.117-8.991 1.159-6.152 1.14-12.512.666-18.732-.376-4.936-3.85-7.21-8.19-9.262Z"/><path fill="#2BD0D0" d="M40.227 219.179c-.036 4.123.894 8.386-.412 12.302-.987 2.967-3.16 5.397-4.282 8.314-2.588 6.734.894 14.285.184 21.475-.295 2.962-1.301 5.807-1.936 8.716a35.262 35.262 0 0 0-.572 11.213 2.831 2.831 0 0 0 2.235 2.954A34.583 34.583 0 0 0 42.216 286a18.304 18.304 0 0 1 2.315-12.645c3.545-5.871 10.433-9.827 11.716-16.57.867-4.566-1.154-9.199-1.01-13.847a14.998 14.998 0 0 1 3.012-8.535c1.667-2.195 3.925-3.893 5.476-6.169 3.728-5.487 2.566-12.822 1.457-19.384-1.109-6.562-1.752-14.113 2.628-19.085 1.386-1.571 3.192-2.75 4.448-4.43 2.798-3.744 2.092-9.511-1.162-12.858-3.254-3.346-8.493-4.272-12.918-2.8a9.315 9.315 0 0 0-4.712 3.238c-2.235 3.207-1.34 7.587-.393 11.399.827 3.31 1.493 7.131.362 10.469-.845 2.483-2.986 3.829-4.805 5.559-5.21 4.87-8.242 11.667-8.403 18.837Z"/><path fill="#30C59B" d="M36.358 255.785c-.643 4.485-1.571 9.006-1.761 13.504v.452c-.01.112-.036.221-.077.325a34.916 34.916 0 0 0-.593 11.226c.025.607.179 1.202.453 1.745-.023.189-.05.375-.077.565a9.43 9.43 0 0 1-10.093-3.165c-.905-1.184-1.516-2.568-2.29-3.847-.724-1.189-1.606-2.306-2.059-3.617-.62-1.808-.375-3.765-.498-5.664a14.533 14.533 0 0 0-3.308-8.296c-2.322-2.78-5.883-5.113-6.042-8.729-.158-3.617 3.204-6.569 3.033-10.127-.154-3.137-3.001-5.547-3.585-8.635-.792-4.172 2.716-8.096 2.557-12.337-.213-6.284-7.902-9.859-9.445-15.958-.905-3.594.507-7.31 1.1-10.976.72-4.464.211-9.04-1.471-13.237-.724-1.808-1.661-3.513-2.046-5.425-.384-1.912-.1-4.069 1.308-5.389 1.358-1.248 3.395-1.446 5.15-.945 4.698 1.357 6.993 6.574 8.188 11.302 1.194 4.729 2.154 9.996 5.955 13.061 1.878 1.514 4.232 2.283 6.413 3.313 4.345 2.053 7.82 4.327 8.192 9.218.452 6.221.493 12.582-.666 18.734-.56 2.979-1.357 5.972-1.117 8.992.24 3.02 1.556 5.877 2.416 8.807.095.33.19.664.272.999 1.14 4.651.774 9.358.09 14.104Z"/><path fill="url(#p)" d="M33.718 282a3.918 3.918 0 0 1-.502-1.702 31.63 31.63 0 0 1 .636-10.98c.025-.106.053-.212.082-.318-.172 4.342.373 8.72-.215 13Z"/><path fill="#30C59B" d="M72.248 185.335c-1.258 1.68-3.067 2.859-4.455 4.43-4.387 4.968-3.742 12.523-2.632 19.085 1.11 6.562 2.274 13.897-1.46 19.384-1.553 2.258-3.813 3.974-5.483 6.169a14.983 14.983 0 0 0-3.018 8.535c-.143 4.648 1.88 9.281 1.012 13.847-1.285 6.743-8.183 10.708-11.733 16.57A18.307 18.307 0 0 0 42.178 286a34.504 34.504 0 0 1-6.765-1.847 3.641 3.641 0 0 1-1.576-.962 1.668 1.668 0 0 1-.165-.235 4.28 4.28 0 0 1-.47-1.734 35.213 35.213 0 0 1 .595-11.214c.023-.108.05-.216.076-.325.636-2.795 1.576-5.537 1.863-8.391.152-1.85.116-3.712-.108-5.555.676-4.742 1.039-9.443-.103-14.059a25.3 25.3 0 0 0-.268-.998c.085-.289.183-.578.295-.862 1.124-2.918 3.3-5.347 4.289-8.315 1.303-3.915.376-8.178.412-12.302.058-7.122 3.24-14 8.353-18.859 1.822-1.73 3.967-3.076 4.813-5.559 1.132-3.338.447-7.159-.363-10.469-.953-3.812-1.858-8.192.394-11.399 1.12-1.589 2.883-2.624 4.718-3.238 4.415-1.472 9.684-.546 12.938 2.8 3.255 3.347 3.944 9.136 1.142 12.858Z"/><path fill="#2BD0D0" d="M152.829 114.453s-18.801 2.912-27.497 23.686c-8.697 20.773-4.174 46.509-4.022 48.774.152 2.264 26.648 12.087 34.222 12.087 7.575 0 9.153-7.604 9.153-7.604l-13.385-5.71 40.667-4.706h7.302l-4.022 6.793s7.937.834 13.241 1.024c5.305.19 8.907-10.321 9.501-15.547.595-5.226-23.43-51.098-27.019-53.815-3.588-2.717-13.326-9.356-38.141-4.982Z"/><path fill="url(#q)" d="M175.853 74.925s3.436 1.923 3.127 8.144c-.309 6.22-2.246 15.581-4.201 18.006-1.956 2.425-8.796 3.375-8.796 3.375s3.731 8.818 6.508 11.094c2.777 2.275-2.79 10.659-8.205 7.908-5.415-2.751-11.692-9.659-11.692-9.659s4.515-8.32 2.989-12.7c-1.527-4.38-7.357-19.748-2.989-23.947 4.368-4.198 13.786-10.215 23.259-2.221Z"/><path fill="#fff" d="M145.889 144 143 180.332l8.825 4.668 7.175-1.262-8.952-11.093L145.889 144ZM193 142s11.939 28.79 6.647 39l-4.078-.794L193 142Z" opacity=".25"/><path fill="url(#r)" d="M160.094 189.697s-4.629 3.85-2.563 6.844c2.066 2.995 4.533 2.909 6.59 1.57 2.057-1.339 6.097-4.517 10.91-3.059 4.814 1.459 5.982 2.387 5.982 2.387s2.536-1.544 1.878-3.092c-.658-1.549-5.692-6.567-7.151-7.217-1.459-.65-7.515 1.348-7.515 1.348s-4.449-1.172-8.131 1.219Z"/><path fill="url(#s)" d="M200.794 181.065s-4.257.506-5.332 3.305c-1.075 2.799-1.462 3.14-1.462 3.14s2.404.46 3.404-.843c.999-1.303 2.039-.755 2.039-.755l-.297 1.671s6.531.985 9.482-.073c2.95-1.059 4.217-2.302 4.217-2.302l1.155-2.826s-2.786-2.021-4.888-2.334c-2.102-.313-8.318 1.017-8.318 1.017Z"/><path fill="#25233A" d="M223.406 211s14.829 11.354 13.511 26.712a52556.31 52556.31 0 0 0-3.254 38.163s-5.98 2.532-9.943 0c-3.963-2.533-6.362-37.185-8.326-40.494-1.963-3.309-13.774-18.229-26.394-19.513L223.406 211Z"/><path fill="#3F3D56" d="M149 222.159s7.041 6.729 19.593 8.842c12.551 2.113 18.402 3.876 22.238 14.691 3.836 10.816 7.516 34.093 8.72 36.695 1.204 2.602 6.325 1.274 6.325 1.274s2.896-3.328 2.896-21.837c0-25.803 1.79-31.092-4.66-37.574-6.45-6.483-12.319-8.25-12.319-8.25L149 222.159Z"/><path fill="#25233A" d="m199 284 1.235 9.465h2.312s14.894.791 15.361.449c.467-.341-.717-7.495-6.36-7.293-5.643.203-6.013-1.349-6.013-1.349L199 284ZM225 276.771l2.345 9.229 25.625-3.474s.902-6.063-7.216-5.461c-2.142.155-3.738 1.643-6.313 1.657-2.576.013-5.042-1.029-6.341-2.722l-8.1.771Z"/><path fill="#2BD0D0" d="m313.111 158.805-96.653 5.189a4.246 4.246 0 0 1-4.458-4.018V91.1a5.107 5.107 0 0 1 4.993-5.108l96.257-1.991a4.65 4.65 0 0 1 3.32 1.3 4.672 4.672 0 0 1 1.43 3.272v65.065a5.176 5.176 0 0 1-4.889 5.167Z"/><path fill="#2BD0D0" d="m319.11 158.805-96.656 5.189a4.246 4.246 0 0 1-4.454-4.022V91.1a5.098 5.098 0 0 1 4.989-5.108L319.259 84A4.66 4.66 0 0 1 324 88.568v65.07a5.175 5.175 0 0 1-4.89 5.167Z"/><path fill="url(#t)" d="m319.11 158.805-96.656 5.189a4.246 4.246 0 0 1-4.454-4.022V91.1a5.098 5.098 0 0 1 4.989-5.108L319.259 84A4.66 4.66 0 0 1 324 88.568v65.07a5.175 5.175 0 0 1-4.89 5.167Z"/><path fill="#3A3054" d="M289.845 185.377 265.134 188s-7.525-1.514-7.118-2.623c.407-1.108 8.276-2.176 8.276-2.176v-44.682c-.068-.099-1.104-1.415-3.941-2.253a14.345 14.345 0 0 0-1.674-.387 4.959 4.959 0 0 1-1.403-.424c-1.688-.869.176-2.383 2.796-2.451.411-.014.821.01 1.227.072h19.005s7.195 2.019 7.543 12.094c.349 10.076 0 40.207 0 40.207Z"/><path fill="#51466B" d="M270 185.472 265.286 188s-7.686-1.514-7.27-2.623c.416-1.108 8.467-2.176 8.467-2.176v-44.685c-.097-.104-1.276-1.289-4.025-2.253a20.838 20.838 0 0 0-3.143-.812c-1.724-.869.18-2.383 2.856-2.451 2.279.302 6.766 2.735 7.057 4.123.291 1.388.772 48.349.772 48.349Z"/><path fill="url(#u)" d="M179 279c-.881 1.001-1.291 1.371-.77.547.27-.159.527-.342.77-.547Z"/><defs><linearGradient id="a" x1="138" x2="145" y1="279" y2="279" gradientUnits="userSpaceOnUse"><stop stop-color="#183866"/><stop offset="1" stop-color="#1A7FC1"/></linearGradient><linearGradient id="b" x1="155.995" x2="160" y1="278.001" y2="278.001" gradientUnits="userSpaceOnUse"><stop/><stop offset=".99" stop-opacity=".01"/></linearGradient><linearGradient id="c" x1="178.988" x2="186.517" y1="98.711" y2="113.801" gradientUnits="userSpaceOnUse"><stop/><stop offset=".99" stop-opacity=".01"/></linearGradient><linearGradient id="d" x1="196.019" x2="165.694" y1="-47.829" y2="-47.901" gradientUnits="userSpaceOnUse"><stop/><stop offset=".99" stop-opacity=".01"/></linearGradient><linearGradient id="e" x1="241.252" x2="233.422" y1="74.47" y2="39.967" gradientUnits="userSpaceOnUse"><stop/><stop offset=".99" stop-opacity=".01"/></linearGradient><linearGradient id="f" x1="201.924" x2="199.94" y1="111.159" y2="110.533" gradientUnits="userSpaceOnUse"><stop/><stop offset=".99" stop-opacity=".01"/></linearGradient><linearGradient id="g" x1="175.071" x2="163.616" y1="78.813" y2="91.464" gradientUnits="userSpaceOnUse"><stop/><stop offset=".99" stop-opacity=".01"/></linearGradient><linearGradient id="h" x1="355.236" x2="22.07" y1="30.122" y2="-42.226" gradientUnits="userSpaceOnUse"><stop/><stop offset="1" stop-opacity=".01"/></linearGradient><linearGradient id="i" x1="144.221" x2="322.219" y1="180.513" y2="180.513" gradientUnits="userSpaceOnUse"><stop stop-color="#183866"/><stop offset="1" stop-color="#1A7FC1"/></linearGradient><linearGradient id="j" x1="51.869" x2="52.887" y1="167.808" y2="239.627" gradientUnits="userSpaceOnUse"><stop/><stop offset=".99" stop-opacity=".01"/></linearGradient><linearGradient id="k" x1="133.696" x2="139.875" y1="185.282" y2="216.917" gradientUnits="userSpaceOnUse"><stop/><stop offset=".99" stop-opacity=".01"/></linearGradient><linearGradient id="l" x1="161.329" x2="160.928" y1="192.127" y2="204.43" gradientUnits="userSpaceOnUse"><stop/><stop offset=".99" stop-opacity=".01"/></linearGradient><linearGradient id="m" x1="86.035" x2="56.271" y1="41.891" y2="37.717" gradientUnits="userSpaceOnUse"><stop/><stop offset=".99" stop-opacity=".01"/></linearGradient><linearGradient id="n" x1="90.387" x2="66.721" y1="61.207" y2="54.921" gradientUnits="userSpaceOnUse"><stop/><stop offset=".99" stop-opacity=".01"/></linearGradient><linearGradient id="o" x1="-129.945" x2="-130.366" y1="266.865" y2="328.774" gradientUnits="userSpaceOnUse"><stop/><stop offset=".99" stop-opacity=".01"/></linearGradient><linearGradient id="p" x1="62.207" x2="58.685" y1="56.709" y2="56.797" gradientUnits="userSpaceOnUse"><stop/><stop offset=".99" stop-opacity=".01"/></linearGradient><linearGradient id="q" x1="150.989" x2="178.999" y1="124.006" y2="124.006" gradientUnits="userSpaceOnUse"><stop stop-color="#ECC4D7"/><stop offset=".42" stop-color="#EFD4D1"/><stop offset="1" stop-color="#F2EAC9"/></linearGradient><linearGradient id="r" x1="182.748" x2="208.748" y1="173.405" y2="173.405" gradientUnits="userSpaceOnUse"><stop stop-color="#ECC4D7"/><stop offset=".42" stop-color="#EFD4D1"/><stop offset="1" stop-color="#F2EAC9"/></linearGradient><linearGradient id="s" x1="218.861" x2="238.861" y1="177.235" y2="177.235" gradientUnits="userSpaceOnUse"><stop stop-color="#ECC4D7"/><stop offset=".42" stop-color="#EFD4D1"/><stop offset="1" stop-color="#F2EAC9"/></linearGradient><linearGradient id="t" x1="305.774" x2="222.19" y1="152.482" y2="249.854" gradientUnits="userSpaceOnUse"><stop stop-color="#362958" stop-opacity=".501"/><stop offset="1" stop-color="#34313D" stop-opacity=".01"/></linearGradient><linearGradient id="u" x1="218.125" x2="216.959" y1="-63.835" y2="-64.266" gradientUnits="userSpaceOnUse"><stop/><stop offset=".99" stop-opacity=".01"/></linearGradient></defs></svg>